<svg xmlns="http://www.w3.org/2000/svg" xmlns:xlink="http://www.w3.org/1999/xlink" version="1.1" width="256" height="256" viewBox="0 0 256 256" xml:space="preserve">

<defs>
</defs>
<g style="stroke: none; stroke-width: 0; stroke-dasharray: none; stroke-linecap: butt; stroke-linejoin: miter; stroke-miterlimit: 10; fill: none; fill-rule: nonzero; opacity: 1;" transform="translate(1.4065934065934016 1.4065934065934016) scale(2.81 2.81)" >
	<path d="M 74.272 90 H 15.728 C 7.042 90 0 82.958 0 74.272 V 15.728 C 0 7.042 7.042 0 15.728 0 h 58.544 C 82.958 0 90 7.042 90 15.728 v 58.544 C 90 82.958 82.958 90 74.272 90 z" style="stroke: none; stroke-width: 1; stroke-dasharray: none; stroke-linecap: butt; stroke-linejoin: miter; stroke-miterlimit: 10; fill: rgb(61,220,132); fill-rule: nonzero; opacity: 1;" transform=" matrix(1 0 0 1 0 0) " stroke-linecap="round" />
	<path d="M 24.036 58.84 L 24.036 58.84 c -1.916 0 -3.469 -1.553 -3.469 -3.469 V 39.32 c 0 -1.916 1.553 -3.469 3.469 -3.469 h 0 c 1.916 0 3.469 1.553 3.469 3.469 v 16.051 C 27.505 57.287 25.952 58.84 24.036 58.84 z" style="stroke: none; stroke-width: 1; stroke-dasharray: none; stroke-linecap: butt; stroke-linejoin: miter; stroke-miterlimit: 10; fill: rgb(255,255,255); fill-rule: nonzero; opacity: 1;" transform=" matrix(1 0 0 1 0 0) " stroke-linecap="round" />
	<path d="M 65.964 58.84 L 65.964 58.84 c -1.916 0 -3.469 -1.553 -3.469 -3.469 V 39.32 c 0 -1.916 1.553 -3.469 3.469 -3.469 h 0 c 1.916 0 3.469 1.553 3.469 3.469 v 16.051 C 69.432 57.287 67.879 58.84 65.964 58.84 z" style="stroke: none; stroke-width: 1; stroke-dasharray: none; stroke-linecap: butt; stroke-linejoin: miter; stroke-miterlimit: 10; fill: rgb(210,255,230); fill-rule: nonzero; opacity: 1;" transform=" matrix(1 0 0 1 0 0) " stroke-linecap="round" />
	<path d="M 58.33 35.852 H 45 c -2.872 8.864 -3.177 17.708 0 26.525 h 2.391 v 9.155 c 0 1.916 1.553 3.469 3.469 3.469 h 0 c 1.916 0 3.469 -1.553 3.469 -3.469 v -9.188 c 2.975 -0.311 5.295 -2.826 5.295 -5.884 V 37.144 C 59.623 36.43 59.044 35.852 58.33 35.852 z" style="stroke: none; stroke-width: 1; stroke-dasharray: none; stroke-linecap: butt; stroke-linejoin: miter; stroke-miterlimit: 10; fill: rgb(210,255,230); fill-rule: nonzero; opacity: 1;" transform=" matrix(1 0 0 1 0 0) " stroke-linecap="round" />
	<path d="M 59.32 30.402 c -0.88 -3.955 -3.337 -7.266 -6.726 -9.262 l 2.676 -4.664 c 0.271 -0.472 0.108 -1.073 -0.364 -1.344 c -0.471 -0.27 -1.073 -0.108 -1.344 0.364 l -2.732 4.761 C 49.055 19.514 47.089 19.1 45 19.1 c -1.989 4.4 -1.961 8.833 0 13.295 h 12.701 C 58.75 32.395 59.547 31.426 59.32 30.402 z M 51.73 28.51 c -0.828 0 -1.5 -0.671 -1.5 -1.5 c 0 -0.828 0.671 -1.5 1.5 -1.5 c 0.828 0 1.5 0.671 1.5 1.5 C 53.229 27.838 52.558 28.509 51.73 28.51 z" style="stroke: none; stroke-width: 1; stroke-dasharray: none; stroke-linecap: butt; stroke-linejoin: miter; stroke-miterlimit: 10; fill: rgb(210,255,230); fill-rule: nonzero; opacity: 1;" transform=" matrix(1 0 0 1 0 0) " stroke-linecap="round" />
	<path d="M 31.669 35.852 H 45 v 26.525 h -2.391 v 9.155 c 0 1.916 -1.553 3.469 -3.469 3.469 h 0 c -1.916 0 -3.469 -1.553 -3.469 -3.469 v -9.188 c -2.975 -0.311 -5.295 -2.826 -5.295 -5.884 V 37.144 C 30.377 36.43 30.956 35.852 31.669 35.852 z" style="stroke: none; stroke-width: 1; stroke-dasharray: none; stroke-linecap: butt; stroke-linejoin: miter; stroke-miterlimit: 10; fill: rgb(255,255,255); fill-rule: nonzero; opacity: 1;" transform=" matrix(1 0 0 1 0 0) " stroke-linecap="round" />
	<path d="M 30.68 30.402 c 0.88 -3.955 3.337 -7.266 6.726 -9.262 l -2.676 -4.664 c -0.271 -0.472 -0.108 -1.073 0.364 -1.344 c 0.471 -0.27 1.073 -0.108 1.344 0.364 l 2.732 4.761 C 40.945 19.514 42.911 19.1 45 19.1 v 13.295 H 32.299 C 31.25 32.395 30.453 31.426 30.68 30.402 z M 38.27 28.51 c 0.828 0 1.5 -0.671 1.5 -1.5 c 0 -0.828 -0.671 -1.5 -1.5 -1.5 c -0.828 0 -1.5 0.671 -1.5 1.5 C 36.771 27.838 37.442 28.509 38.27 28.51 z" style="stroke: none; stroke-width: 1; stroke-dasharray: none; stroke-linecap: butt; stroke-linejoin: miter; stroke-miterlimit: 10; fill: rgb(255,255,255); fill-rule: nonzero; opacity: 1;" transform=" matrix(1 0 0 1 0 0) " stroke-linecap="round" />
</g>
</svg>